# xmcd
#
# Track frame offsets:
# 150
# 4912
# 17552
# 30480
# 42762
# 51004
# 62498
# 78520
# 82900
# 92903
# 103180
# 121674
# 134724
# 137061
# 150548
# 172341
# 185702
# 197566
# 206352
# 218926
# 219233
#
# Disc length: 3201 seconds
#
#
# Revision: 0
# Processed by: cddbd v1.5.2PL0 Copyright (c) Steve Scherf et al.
# Submitted via: FreeRIP 2.951 
#
DISCID=200c7f15
DTITLE=De La Soul - Impossible Mission TV Series
DYEAR=1900
DGENRE=Hip-Hop
TTITLE0=Intro Impossible Mission
TTITLE1=Live At The Dug Out
TTITLE2=Voodoo Circus
TTITLE3=Friends
TTITLE4=What The Fck One
TTITLE5=Go Out And Get It
TTITLE6=Respect
TTITLE7=Beef
TTITLE8=Reverse Your Steps(Oh No)
TTITLE9=You Got It
TTITLE10=What The Fck Two
TTITLE11=Just Havin A Ball
TTITLE12=What If
TTITLE13=Relax
TTITLE14=Wasnt For You
TTITLE15=The Corner
TTITLE16=Freestyle(DatSht)
TTITLE17=What The Fck Three
TTITLE18=Freedom Train
TTITLE19=Silence
TTITLE20=Live In Tokyo(SPD Kan)
EXTD=
EXTT0=
EXTT1=
EXTT2=
EXTT3=
EXTT4=
EXTT5=
EXTT6=
EXTT7=
EXTT8=
EXTT9=
EXTT10=
EXTT11=
EXTT12=
EXTT13=
EXTT14=
EXTT15=
EXTT16=
EXTT17=
EXTT18=
EXTT19=
EXTT20=
PLAYORDER=
